<svg xmlns="http://www.w3.org/2000/svg" width="820" height="530"><style>text{font:20px Arial;fill:#183153}.box{fill:#e6f0ff;stroke:#4285bd;stroke-width:2}.green{fill:#e3f6ec;stroke:#27986c;stroke-width:2}.line{stroke:#34495e;stroke-width:3;fill:none}</style><rect class="box" x="255" y="15" width="310" height="60" rx="9"/><text x="410" y="52" text-anchor="middle">Choose platform</text><path class="line" d="M410 75V120"/><path d="M410 120L530 178L410 236L290 178Z" fill="#fff1d7" stroke="#d58b26" stroke-width="2"/><text x="410" y="184" text-anchor="middle">Platform?</text><path class="line" d="M290 178H170V270M530 178H650V270"/><text x="210" y="165">Windows</text><text x="565" y="165">Linux</text><rect class="box" x="30" y="270" width="280" height="65" rx="9"/><text x="170" y="310" text-anchor="middle">WindowsFactory</text><rect class="green" x="510" y="270" width="280" height="65" rx="9"/><text x="650" y="310" text-anchor="middle">LinuxFactory</text><path class="line" d="M170 335V385H410M650 335V385H410V420"/><rect class="green" x="190" y="420" width="440" height="75" rx="9"/><text x="410" y="448" text-anchor="middle">Create Button + Checkbox</text><text x="410" y="475" text-anchor="middle">Use through abstract interfaces</text></svg>