<svg xmlns="http://www.w3.org/2000/svg" width="1050" height="620" viewBox="0 0 1050 620"><style>text{font:17px Arial;fill:#183153}.head{font-weight:bold;font-size:21px}.box{fill:#e6f0ff;stroke:#4285bd;stroke-width:2}.green{fill:#e3f6ec;stroke:#27986c;stroke-width:2}.edge{stroke:#34495e;stroke-width:2.5;fill:none}</style><rect class="box" x="330" y="20" width="390" height="115" rx="6"/><text class="head" x="525" y="50" text-anchor="middle">«interface» GUIFactory</text><text x="345" y="85">+ createButton(): unique_ptr&lt;Button&gt;</text><text x="345" y="111">+ createCheckbox(): unique_ptr&lt;Checkbox&gt;</text><path class="edge" d="M525 135V160H260V185M525 160H790V185"/><rect class="box" x="80" y="185" width="360" height="100" rx="6"/><text class="head" x="260" y="216" text-anchor="middle">WindowsFactory</text><text x="95" y="247">+ createButton()</text><text x="95" y="270">+ createCheckbox()</text><rect class="box" x="610" y="185" width="360" height="100" rx="6"/><text class="head" x="790" y="216" text-anchor="middle">LinuxFactory</text><text x="625" y="247">+ createButton()</text><text x="625" y="270">+ createCheckbox()</text><rect class="green" x="80" y="335" width="360" height="80" rx="6"/><text class="head" x="260" y="364" text-anchor="middle">«interface» Button</text><text x="95" y="397">+ render(): void</text><rect class="green" x="610" y="335" width="360" height="80" rx="6"/><text class="head" x="790" y="364" text-anchor="middle">«interface» Checkbox</text><text x="625" y="397">+ check(): void</text><path class="edge" d="M260 415V447H165V470M260 447H355V470M790 415V447H695V470M790 447H885V470"/><rect class="green" x="70" y="470" width="190" height="65" rx="6"/><text x="165" y="509" text-anchor="middle">WindowsButton</text><rect class="green" x="270" y="470" width="190" height="65" rx="6"/><text x="365" y="509" text-anchor="middle">LinuxButton</text><rect class="green" x="600" y="470" width="190" height="65" rx="6"/><text x="695" y="509" text-anchor="middle">WindowsCheckbox</text><rect class="green" x="800" y="470" width="190" height="65" rx="6"/><text x="895" y="509" text-anchor="middle">LinuxCheckbox</text><text x="525" y="585" text-anchor="middle">Factories create related product families through abstract interfaces.</text></svg>